<svg width="115" height="69" viewBox="0 0 115 69" fill="none" xmlns="http://www.w3.org/2000/svg">
<path fill-rule="evenodd" clip-rule="evenodd" d="M35.803 43.7023L42.8937 67.9121H46.0812L65.8625 0.693359H59.6281L44.7219 53.1465L44.5344 55.6309L44.3469 53.1465L41.6714 43.7023H35.803ZM22.1309 54.1579L22.3184 56.6423L22.5059 54.1579L37.4121 1.70481H43.6465L23.8652 68.9236H20.6777L0.990234 1.70481H7.27148L22.1309 54.1579ZM76.7234 0.915166H85.5265V6.68079H82.7703V62.3683H85.5265V68.1339H76.7234V0.915166ZM97.7234 62.3683H93.1371V68.1339H98.0047C100.286 68.1339 102.427 67.712 104.427 66.8683C106.458 65.9933 108.223 64.8058 109.723 63.3058C111.223 61.8058 112.395 60.0558 113.239 58.0558C114.114 56.0558 114.552 53.9152 114.552 51.6339V17.462C114.552 15.1808 114.114 13.0402 113.239 11.0402C112.395 9.00892 111.223 7.24329 109.723 5.74329C108.223 4.24329 106.458 3.07142 104.427 2.22767C102.427 1.35267 100.286 0.915166 98.0047 0.915166H93.1371V6.68079H97.7234C99.2234 6.68079 100.614 6.96204 101.895 7.52454C103.208 8.08704 104.348 8.86829 105.317 9.86829C106.317 10.837 107.098 11.9777 107.661 13.2902C108.223 14.5714 108.505 15.962 108.505 17.462V51.6339C108.505 53.1339 108.223 54.5402 107.661 55.8527C107.098 57.1339 106.317 58.2589 105.317 59.2277C104.348 60.1964 103.208 60.962 101.895 61.5245C100.614 62.087 99.2234 62.3683 97.7234 62.3683Z" fill="#1E8C93"/>
</svg>
